<?xml version="1.0" encoding="UTF-8" standalone="no"?>
<!DOCTYPE svg PUBLIC "-//W3C//DTD SVG 1.1//EN" "http://www.w3.org/Graphics/SVG/1.1/DTD/svg11.dtd">
<svg width="100%" height="100%" viewBox="0 0 216 216" version="1.1" xmlns="http://www.w3.org/2000/svg" xmlns:xlink="http://www.w3.org/1999/xlink" xml:space="preserve" xmlns:serif="http://www.serif.com/" style="fill-rule:evenodd;clip-rule:evenodd;stroke-linejoin:round;stroke-miterlimit:2;">
    <g transform="matrix(1.46466,0,0,1.46466,-49.5361,-37.2318)">
        <path d="M160.37,91.413L156.941,91.413L156.941,70.401C156.941,63.23 151.127,57.416 143.957,57.416L126.656,57.416C124.714,46.534 114.316,39.286 103.433,41.228C95.547,42.332 88.35,49.53 87.245,57.416L69.944,57.416C62.774,57.416 56.96,63.229 56.96,70.401L56.96,81.316L33.821,87.594L60.793,95.605L34.341,103.462L60.793,111.318L34.341,119.174L60.837,127.045L56.961,128.205L56.961,144.417C56.961,151.588 62.774,157.402 69.945,157.402L94.048,157.402L94.048,153.805C94.048,146.679 99.826,140.903 106.951,140.903C114.077,140.903 119.854,146.679 119.854,153.805L119.854,157.402L143.957,157.402C151.127,157.402 156.941,151.589 156.941,144.417L156.941,123.405L160.372,123.405L181.296,138.258L181.296,76.56L160.37,91.413ZM149.827,144.417C149.827,147.659 147.199,150.288 143.956,150.288L126.655,150.288C124.713,139.405 114.315,132.157 103.432,134.1C95.546,135.205 88.349,142.403 87.244,150.288L69.944,150.288C66.702,150.288 64.073,147.659 64.073,144.417L64.073,133.5L85.733,127.017L59.326,119.175L85.777,111.319L59.326,103.463L85.777,95.606L59.846,87.904L64.073,86.758L64.073,70.401C64.073,67.158 66.702,64.53 69.944,64.53L94.047,64.53L94.047,60.933C94.047,53.807 99.825,48.031 106.95,48.031C114.076,48.031 119.853,53.807 119.853,60.933L119.853,64.53L143.956,64.53C147.198,64.53 149.827,67.158 149.827,70.401L149.827,91.413L136.364,91.413L136.364,123.404L149.827,123.404L149.827,144.417ZM157.945,116.291L143.479,116.291L143.479,98.526L157.945,98.526L157.945,116.291ZM174.182,124.484L165.058,118.009L165.058,96.808L174.182,90.333L174.182,124.484Z" style="fill:rgb(204,51,51);fill-rule:nonzero;"/>
    </g>
</svg>
